<svg width="169" height="133" viewBox="0 0 169 133" fill="none" xmlns="http://www.w3.org/2000/svg">
<g clip-path="url(#clip0_12468_5951)">
<path d="M149.134 89.5824C140.634 89.0724 133.994 84.3324 134.314 78.9824C134.634 73.6324 141.784 69.7124 150.294 70.2224C158.794 70.7324 165.434 75.4724 165.114 80.8224C164.794 86.1724 157.644 90.0924 149.134 89.5824Z" fill="#FECB8B"/>
<path d="M135.184 81.3817C135.084 80.1617 139.414 74.1317 140.004 73.0117C139.454 80.3317 149.134 86.2117 156.664 85.6217C162.914 85.1217 164.814 78.6217 164.844 79.0417C165.254 84.1917 158.944 88.8917 150.754 89.5317C142.564 90.1817 135.594 86.5317 135.184 81.3817Z" fill="#FF6700"/>
<path d="M142.994 71.6722C148.174 72.0422 153.614 72.7922 157.934 75.4722C161.294 77.6122 163.804 80.8522 159.874 83.8922C157.074 86.0222 153.274 86.8222 149.744 86.8822C146.034 86.9622 142.384 85.7722 139.454 83.4522C137.604 81.9222 135.974 79.8422 135.734 77.4122C135.704 76.7822 135.144 76.2922 134.524 76.3622C132.564 76.5422 133.674 81.0322 134.174 82.1522C136.054 86.6822 140.194 89.8722 144.784 91.3922C153.004 94.0722 166.674 91.6322 168.264 81.5022C168.934 72.7622 159.004 68.0522 151.654 67.8622C148.564 67.7122 145.544 68.0922 142.684 68.9022C141.934 69.1122 141.504 69.8922 141.714 70.6422C141.884 71.2422 142.414 71.6322 142.994 71.6622V71.6722Z" fill="black"/>
<path d="M37.3739 57.4021C33.0339 49.1621 23.4239 34.3121 10.6339 34.4621C-7.04613 34.6721 13.5339 74.6321 13.5339 74.6321C13.5339 74.6321 -3.15613 107.352 11.3939 110.812C25.9539 114.272 38.2339 93.7621 38.2339 93.7621" fill="#FF6700"/>
<path d="M115.333 37.473C115.333 37.473 103.473 14.703 77.3835 4.50303C64.8335 -0.396972 59.7335 7.24303 66.9735 16.863C76.1935 29.113 41.2535 4.99303 63.6835 44.853L115.343 37.463L115.333 37.473Z" fill="#FF6700"/>
<path d="M95.5135 28.3922L106.714 25.0722L87.5635 9.46219L69.8835 2.99219L63.8535 7.18219C63.8535 7.18219 89.4335 15.7022 95.5035 28.4022L95.5135 28.3922Z" fill="#FECB8B"/>
<path d="M112.204 35.8616C111.654 36.6616 111.654 38.1316 112.154 38.8616V38.8316L112.104 38.7316C110.474 34.4516 107.874 30.5916 104.974 27.0616C98.4038 19.3816 90.0938 13.1716 80.9338 8.98162C77.5738 7.63162 73.4838 5.70162 69.9738 6.02162C65.9338 6.23162 66.6338 9.53162 68.1138 12.2216C69.8138 15.2716 74.0238 18.6916 71.3638 22.5216C69.0538 25.6616 64.4738 24.0616 61.4638 24.2616C60.5638 24.2716 59.8938 24.5216 59.9438 24.5716C59.9438 24.5916 60.0538 24.4916 60.0638 24.4816C59.7538 27.2816 61.3538 30.6516 62.4438 33.3716C62.7838 34.1716 63.4738 35.7816 63.8438 36.5716C64.8138 38.7216 65.8138 40.8916 66.7538 43.1216L63.1938 41.3616C79.6338 38.9416 95.5738 37.4016 112.224 35.8516L112.204 35.8616ZM118.464 39.0816C100.684 42.4716 82.1738 45.8416 64.1438 48.3416C62.6738 48.5516 61.2838 47.8016 60.6038 46.5816C56.8638 41.2216 53.7838 35.3516 52.4038 28.8216C50.5738 19.1116 56.4038 15.3916 65.4338 16.9816C66.0038 17.0516 66.5638 17.1116 66.8838 17.1216C67.0238 17.1316 67.1238 17.1016 66.8838 17.1716C65.8038 17.4916 64.9238 18.6616 64.9238 19.8016C64.9038 20.0216 64.9438 20.2816 65.0138 20.4716C64.2038 18.8216 62.7538 17.1916 61.9738 15.3416C60.5838 12.3816 59.7338 9.04162 60.9338 5.63162C63.5638 -1.42838 72.4338 -0.748377 78.0238 1.70162C79.7638 2.43162 81.5538 3.33162 83.2738 4.10162C84.8138 4.99162 86.7738 5.97162 88.2738 6.90162L91.4938 8.94162C99.9638 14.5616 107.064 21.9316 113.544 29.6916C114.774 31.1116 116.024 32.7316 117.204 34.2016L117.814 34.9816L118.124 35.3816L118.204 35.4816C118.854 36.4516 118.934 38.0116 118.474 39.0616L118.464 39.0816Z" fill="black"/>
<path d="M112.204 35.8616C111.654 36.6616 111.654 38.1316 112.154 38.8616V38.8316L112.104 38.7316C110.474 34.4516 107.874 30.5916 104.974 27.0616C98.4038 19.3816 90.0938 13.1716 80.9338 8.98162C77.5738 7.63162 73.4838 5.70162 69.9738 6.02162C65.9338 6.23162 66.6338 9.53162 68.1138 12.2216C69.8138 15.2716 74.0238 18.6916 71.3638 22.5216C69.0538 25.6616 64.4738 24.0616 61.4638 24.2616C60.5638 24.2716 59.8938 24.5216 59.9438 24.5716C59.9438 24.5916 60.0538 24.4916 60.0638 24.4816C59.7538 27.2816 61.3538 30.6516 62.4438 33.3716C62.7838 34.1716 63.4738 35.7816 63.8438 36.5716C64.8138 38.7216 65.8138 40.8916 66.7538 43.1216L63.1938 41.3616C79.6338 38.9416 95.5738 37.4016 112.224 35.8516L112.204 35.8616ZM118.464 39.0816C100.684 42.4716 82.1738 45.8416 64.1438 48.3416C62.6738 48.5516 61.2838 47.8016 60.6038 46.5816C56.8638 41.2216 53.7838 35.3516 52.4038 28.8216C50.5738 19.1116 56.4038 15.3916 65.4338 16.9816C66.0038 17.0516 66.5638 17.1116 66.8838 17.1216C67.0238 17.1316 67.1238 17.1016 66.8838 17.1716C65.8038 17.4916 64.9238 18.6616 64.9238 19.8016C64.9038 20.0216 64.9438 20.2816 65.0138 20.4716C64.2038 18.8216 62.7538 17.1916 61.9738 15.3416C60.5838 12.3816 59.7338 9.04162 60.9338 5.63162C63.5638 -1.42838 72.4338 -0.748377 78.0238 1.70162C79.7638 2.43162 81.5538 3.33162 83.2738 4.10162C84.8138 4.99162 86.7738 5.97162 88.2738 6.90162L91.4938 8.94162C99.9638 14.5616 107.064 21.9316 113.544 29.6916C114.774 31.1116 116.024 32.7316 117.204 34.2016L117.814 34.9816L118.124 35.3816L118.204 35.4816C118.854 36.4516 118.934 38.0116 118.474 39.0616L118.464 39.0816Z" fill="black"/>
<path d="M38.2238 93.7523L38.3838 90.7323C49.1038 104.592 70.1438 117.582 91.2438 117.582C121.364 117.582 145.784 97.1623 145.784 71.9923C145.784 46.8223 121.364 26.4023 91.2438 26.4023C70.7138 26.4023 48.0638 42.0823 37.3638 57.4223" fill="#FECB8B"/>
<path d="M30.2137 63.5419C22.0637 45.7719 9.96369 39.5019 7.01369 47.2219C5.19369 19.5319 28.8537 45.2719 33.5137 55.9519L30.2137 63.5419Z" fill="#FECB8B"/>
<path d="M13.2935 107.591C25.3135 107.201 30.6335 88.5314 30.5835 82.4414L37.3335 93.1614C29.8935 103.181 21.9435 108.641 13.2935 107.591Z" fill="black"/>
<path d="M13.2935 107.591C25.3135 107.201 30.6335 88.5314 30.5835 82.4414L37.3335 93.1614C29.8935 103.181 21.9435 108.641 13.2935 107.591Z" fill="black"/>
<path d="M76.4037 117.583C70.2337 118.353 33.0337 89.5229 35.0637 80.8929C37.4137 83.2129 30.2437 70.7029 34.2437 62.5229C54.7137 20.6029 99.7337 26.8129 95.5037 28.3929C60.5237 41.4929 48.0237 93.2328 89.2237 107.733C94.7137 110.693 106.434 111.903 115.184 110.023C123.164 108.303 87.7037 118.853 70.7037 118.363" fill="#FF6700"/>
<path d="M41.2435 95.5626C35.0335 105.163 24.7835 116.083 12.2335 114.543C7.73353 113.983 3.97353 111.333 2.63353 106.603C-0.14647 96.6626 6.11353 82.0026 10.3935 73.0326C10.3935 73.0326 10.3935 76.2526 10.3935 76.2426C5.79353 66.5226 -1.40647 50.2026 0.61353 39.4726C2.32353 31.0426 10.4635 30.1026 17.2935 32.4826C24.6535 35.1226 29.9335 40.8226 34.2835 46.8826C36.3635 49.8426 38.2035 52.9226 39.8535 56.1026C41.4435 59.4326 36.7335 61.8826 34.9035 58.7126C30.3735 50.6126 24.3135 41.5426 15.3435 38.3026C12.7135 37.4226 9.19353 37.3126 8.17353 38.2926C4.96353 41.2826 7.71353 50.4926 8.89353 54.4726C10.9035 60.7926 13.6635 67.1426 16.6635 73.0326C17.2035 74.0726 17.1635 75.2626 16.6635 76.2426C14.0935 81.4926 11.7935 87.1626 10.2835 92.8026C9.33353 96.7226 7.51353 104.153 10.8535 106.843C12.5935 107.813 14.7635 107.823 16.7335 107.513C23.3235 106.253 28.7135 100.683 32.7835 95.4426C33.6235 94.3426 34.5035 93.0826 35.2235 91.9226C37.7635 88.0326 43.5235 91.5126 41.2335 95.5726L41.2435 95.5626Z" fill="black"/>
<path d="M41.2435 95.5626C35.0335 105.163 24.7835 116.083 12.2335 114.543C7.73353 113.983 3.97353 111.333 2.63353 106.603C-0.14647 96.6626 6.11353 82.0026 10.3935 73.0326C10.3935 73.0326 10.3935 76.2526 10.3935 76.2426C5.79353 66.5226 -1.40647 50.2026 0.61353 39.4726C2.32353 31.0426 10.4635 30.1026 17.2935 32.4826C24.6535 35.1226 29.9335 40.8226 34.2835 46.8826C36.3635 49.8426 38.2035 52.9226 39.8535 56.1026C41.4435 59.4326 36.7335 61.8826 34.9035 58.7126C30.3735 50.6126 24.3135 41.5426 15.3435 38.3026C12.7135 37.4226 9.19353 37.3126 8.17353 38.2926C4.96353 41.2826 7.71353 50.4926 8.89353 54.4726C10.9035 60.7926 13.6635 67.1426 16.6635 73.0326C17.2035 74.0726 17.1635 75.2626 16.6635 76.2426C14.0935 81.4926 11.7935 87.1626 10.2835 92.8026C9.33353 96.7226 7.51353 104.153 10.8535 106.843C12.5935 107.813 14.7635 107.823 16.7335 107.513C23.3235 106.253 28.7135 100.683 32.7835 95.4426C33.6235 94.3426 34.5035 93.0826 35.2235 91.9226C37.7635 88.0326 43.5235 91.5126 41.2335 95.5726L41.2435 95.5626Z" fill="black"/>
<path d="M31.4436 61.0522C41.8736 42.2922 64.8236 26.2722 86.1736 23.7522C108.764 21.7222 133.414 32.6222 143.864 53.4422C156.794 79.8522 140.094 107.682 114.104 117.232C105.184 120.592 95.5536 121.872 86.0736 121.082C68.5036 119.212 51.9936 110.362 40.1236 97.3922C39.1436 96.3922 37.8736 94.7022 36.9736 93.6222C34.4336 90.3522 32.3336 86.7822 30.7336 82.8922C30.1936 81.6122 30.7936 80.1322 32.0736 79.5922C33.2936 79.0722 34.6936 79.5922 35.2836 80.7522C37.9236 85.9422 41.7536 90.6322 46.1836 94.6822C59.0436 106.452 76.7636 114.642 94.3936 113.712C117.264 112.962 142.574 97.4022 143.254 72.5522C143.854 47.3622 118.874 30.4522 95.6336 29.4122C83.8136 28.3522 72.1636 32.5622 61.9536 38.8622C51.9936 45.1422 42.5736 53.6322 37.0136 63.9922C34.9536 67.6322 29.5836 64.7922 31.4436 61.0322H31.4336L31.4436 61.0522Z" fill="black"/>
<path d="M103.414 71.4317C106.824 70.4717 108.284 65.0717 106.664 59.3717C105.054 53.6717 100.984 49.8417 97.5739 50.8017C94.1639 51.7617 92.7039 57.1617 94.3239 62.8617C95.9339 68.5617 100.004 72.3917 103.414 71.4317Z" fill="black"/>
<path d="M103.414 71.4317C106.824 70.4717 108.284 65.0717 106.664 59.3717C105.054 53.6717 100.984 49.8417 97.5739 50.8017C94.1639 51.7617 92.7039 57.1617 94.3239 62.8617C95.9339 68.5617 100.004 72.3917 103.414 71.4317Z" fill="black"/>
<path d="M107.734 68.4122C109.064 68.0322 109.694 66.1222 109.134 64.1322C108.574 62.1422 107.034 60.8422 105.704 61.2222C104.374 61.6022 103.744 63.5122 104.304 65.5022C104.864 67.4922 106.404 68.7922 107.734 68.4122Z" fill="white"/>
<path d="M121.524 67.3526C124.724 66.4426 126.094 61.3726 124.584 56.0126C123.064 50.6626 119.244 47.0526 116.044 47.9626C112.834 48.8726 111.474 53.9426 112.984 59.3026C114.494 64.6526 118.324 68.2626 121.524 67.3526Z" fill="black"/>
<path d="M121.524 67.3526C124.724 66.4426 126.094 61.3726 124.584 56.0126C123.064 50.6626 119.244 47.0526 116.044 47.9626C112.834 48.8726 111.474 53.9426 112.984 59.3026C114.494 64.6526 118.324 68.2626 121.524 67.3526Z" fill="black"/>
<path d="M126.154 64.5015C127.404 64.1515 127.994 62.3415 127.464 60.4815C126.934 58.6115 125.494 57.3915 124.234 57.7415C122.984 58.0915 122.394 59.9015 122.924 61.7615C123.454 63.6315 124.894 64.8515 126.154 64.5015Z" fill="white"/>
<path d="M108.424 43.4927C109.854 39.1427 115.644 37.0727 119.484 39.5327C121.244 40.5227 123.984 43.4327 121.494 45.0427C120.954 45.3627 120.354 45.2927 119.784 45.1927C118.424 44.9227 117.254 44.4227 115.904 44.4727C113.984 44.3627 112.294 45.6727 110.404 45.8627C109.084 46.1327 107.934 44.7327 108.424 43.4927Z" fill="black"/>
<path d="M84.0635 45.7324C84.4935 36.5924 94.3435 31.5224 102.033 36.5124C103.613 37.4224 102.993 39.9324 101.203 40.0224C99.9535 40.1424 98.7135 39.9524 97.5035 40.0724C93.0035 40.0224 90.0135 42.9724 87.7035 46.5824C86.6735 48.3724 84.0735 47.8424 84.0635 45.7424V45.7324Z" fill="black"/>
<path d="M94.7235 124.013C84.6535 120.783 78.1435 113.033 80.1735 106.703C82.2035 100.373 92.0135 97.8629 102.073 101.093C112.143 104.323 118.653 112.073 116.623 118.403C114.593 124.733 104.783 127.243 94.7235 124.013Z" fill="#FECB8B"/>
<path d="M80.4938 109.862C80.7538 108.362 81.0138 105.272 82.0738 104.102C82.2738 109.912 89.4938 116.432 98.7338 118.042C106.394 119.372 111.994 114.802 112.394 108.162C112.414 108.672 116.954 115.672 116.874 116.182C115.774 122.492 106.744 126.192 96.7038 124.452C86.6638 122.702 79.4038 116.172 80.5038 109.862H80.4938Z" fill="#FF6700"/>
<path d="M92.8837 100.592C99.0037 102.632 105.304 105.222 109.674 109.772C113.054 113.382 115.074 118.052 109.414 120.492C105.394 122.192 100.574 121.982 96.3236 120.972C91.8436 119.922 87.8136 117.372 85.0036 113.682C83.2536 111.272 81.9336 108.272 82.3936 105.272C82.5536 104.502 82.0337 103.752 81.2637 103.632C78.8537 103.242 78.7937 108.982 79.0537 110.482C79.9137 116.512 83.9137 121.622 88.9537 124.862C98.0137 130.622 115.184 131.902 120.224 120.212C123.734 109.912 113.234 101.182 104.464 98.7025C100.794 97.5725 97.0436 97.0925 93.3636 97.1825C92.4036 97.2025 91.6337 98.0125 91.6637 98.9725C91.6837 99.7425 92.1937 100.372 92.8837 100.592Z" fill="black"/>
<path d="M99.5435 80.5315C99.5435 80.5315 99.6235 92.0715 108.753 91.1815C122.513 89.8315 135.923 63.9115 110.733 77.6815C104.053 81.3315 99.5535 80.5315 99.5535 80.5315H99.5435Z" fill="black"/>
<path d="M124.824 130.962L164.814 103.842" stroke="black" stroke-width="4" stroke-linecap="round" stroke-linejoin="round"/>
<path d="M124.954 126.461L124.824 130.961" stroke="black" stroke-width="4" stroke-linecap="round" stroke-linejoin="round"/>
<path d="M134.954 118.682L134.824 124.182" stroke="black" stroke-width="4" stroke-linecap="round" stroke-linejoin="round"/>
<path d="M144.954 110.902L144.824 117.402" stroke="black" stroke-width="4" stroke-linecap="round" stroke-linejoin="round"/>
<path d="M154.944 103.121L154.824 110.621" stroke="black" stroke-width="4" stroke-linecap="round" stroke-linejoin="round"/>
<path d="M164.944 95.3418L164.814 103.842" stroke="black" stroke-width="4" stroke-linecap="round" stroke-linejoin="round"/>
</g>
<defs>
<clipPath id="clip0_12468_5951">
<rect width="168.03" height="132.97" fill="white" transform="translate(0.263672 -0.0078125)"/>
</clipPath>
</defs>
</svg>
